<?xml version="1.0" encoding="utf-8"?>
<!-- Generator: Adobe Illustrator 15.0.0, SVG Export Plug-In . SVG Version: 6.00 Build 0)  -->
<!DOCTYPE svg PUBLIC "-//W3C//DTD SVG 1.1//EN" "http://www.w3.org/Graphics/SVG/1.1/DTD/svg11.dtd">
<svg version="1.1" id="Layer_1" xmlns="http://www.w3.org/2000/svg" xmlns:xlink="http://www.w3.org/1999/xlink" x="0px" y="0px"
	 width="1000px" height="1000px" viewBox="0 0 1000 1000" enable-background="new 0 0 1000 1000" xml:space="preserve">
<path id="amerika" fill="none" stroke="#000000" stroke-miterlimit="10" d="M204,407l49-36l74-43l59-36c0,0-16-17-19-18s-28-1-36-1
	s-41,7-59,9s-81,15-81,15l-55,1c0,0-61-5-65-5s-28,27-28,27l9,20l28,3c0,0,0,27-3,31s-27,51-27,51l26,16l51,33c0,0,40,26,40,37
	s0,19,0,19s39,58,40,68s9,47,9,47l3,38l33-29l39-82l-11-37l-61-51l-26-1c0,0-33-22-33-25s12-29,12-29l25-18L204,407z"/>
<path id="europa" fill="none" stroke="#000000" stroke-miterlimit="10" d="M384,424l-29,31l10,23l9,27l25,13l26-1l11,19l11,27l7,27
	l21,39l11,7l23-25l14-30l19-51c0,0,17-18,20-29s-1-22,12-23s44-19,44-19l10,22l31,47c0,0,47,9,62,21s37,31,37,31l-6,13l-1,25l4,25
	h26l43,15l24-30l10-68l-42-45l-49-56l-2-9l5-44l20-11l8-51l19-3l42-36l-50-4l-107-13l-54-4c0,0-73,8-76,8s-29,11-29,11h-45l-44,6
	l-20,27l-17,31c0,0-5,20-7,23s-18,17-18,17L384,424z"/>
</svg>
